<?xml version="1.0" encoding="UTF-8"?>
<svg width="277px" height="42px" viewBox="0 0 277 42" version="1.1" xmlns="http://www.w3.org/2000/svg" xmlns:xlink="http://www.w3.org/1999/xlink">
    <title>logo-swan</title>
    <g id="logo-swan" stroke="none" stroke-width="1" fill="none" fill-rule="evenodd">
        <g id="Swan-Logo-Copy" transform="translate(0, 0)" fill="#26232F">
            <path d="M0.0907507,29.1095 C0.823749,37.0301 6.66053,42 15.8149,42 C25.1502,42 31.5429,36.7911 31.5429,29.0263 C31.5429,21.7605 27.6344,18.8153 19.3707,17.129 C19.1826,17.0906 19.0728,17.0679 18.963,17.0457 C18.6853,16.9898 18.4068,16.9375 16.8599,16.6458 C10.5841,15.4624 8.62815,14.4414 8.62815,11.5746 C8.62815,8.78198 11.3275,6.80213 15.5946,6.80213 C20.018,6.80213 22.5358,8.73742 23.0106,12.0701 L23.1204,12.8403 L30.4472,12.8403 L30.3645,11.8665 C29.7561,4.69902 23.7497,0 15.9618,0 C7.37524,0 1.26202,4.63701 1.26202,11.5746 C1.26202,18.5422 5.006,21.2257 13.3929,22.9831 C13.5278,23.0114 13.5974,23.0262 13.667,23.0407 C13.8398,23.0768 14.0129,23.1116 15.1836,23.3476 C21.9856,24.7192 24.1033,25.8921 24.1033,29.3208 C24.1033,32.8272 21.1907,35.1242 16.1087,35.1242 C10.9656,35.1242 8.11234,33.0077 7.51717,28.8969 L7.40596,28.1288 L0,28.1288 L0.0907507,29.1095 Z M119.799,40.8688 L126.317,40.8688 L126.317,33.7563 L119.799,33.7563 C113.072,33.7563 108.09,27.6631 108.09,20.4439 C108.09,13.3158 113.52,7.11251 120.809,7.11251 C129.207,7.11251 134.154,11.4601 134.154,18.6876 L134.154,41.0181 L141.251,41.0181 L141.251,18.6876 C141.251,7.30902 132.935,0 120.809,0 C109.379,0 100.993,9.5796 100.993,20.4439 C100.993,31.3136 108.806,40.8688 119.799,40.8688 Z M184,16.0575 C184,6.75764 177.923,0 168.824,0 C164.008,0 159.944,1.96682 157.571,5.01223 L157.571,1.12 L149.967,1.12 L149.967,41.02 L157.571,41.02 L157.571,17.3086 C157.571,11.5328 161.825,7.23993 167.425,7.23993 C172.526,7.23993 176.668,11.0289 176.668,16.4255 L176.668,41.02 L184,41.02 L184,16.0575 Z M66.6793,11.454 L57.3424,41.02 L48.609,41.02 L36.2466,1.12 L44.3826,1.12 L53.1519,31.2113 L62.7562,1.12 L70.6084,1.12 L80.1432,31.2114 L88.982,1.12 L97.1188,1.12 L84.6801,41.02 L75.9465,41.02 L66.6793,11.454 Z" id="Shape"></path>
        </g>
        <rect id="Rectangle-Copy" fill="#E0D9F0" x="194" y="0" width="83" height="42" rx="8"></rect>
        <g id="API" transform="translate(209.8516, 10)" fill="#6240B5" fill-rule="nonzero">
            <path d="M3.046875,24 L0,24 L8.8125,0 L11.8125,0 L20.625,24 L17.578125,24 L10.40625,3.796875 L10.21875,3.796875 L3.046875,24 Z M4.171875,14.625 L16.453125,14.625 L16.453125,17.203125 L4.171875,17.203125 L4.171875,14.625 Z" id="Shape"></path>
            <path d="M24.375,24 L24.375,0 L32.484375,0 C34.3671875,0 35.9082031,0.337890625 37.1074219,1.01367188 C38.3066406,1.68945312 39.1953125,2.6015625 39.7734375,3.75 C40.3515625,4.8984375 40.640625,6.1796875 40.640625,7.59375 C40.640625,9.0078125 40.3535156,10.2929688 39.7792969,11.4492188 C39.2050781,12.6054688 38.3203125,13.5253906 37.125,14.2089844 C35.9296875,14.8925781 34.3984375,15.234375 32.53125,15.234375 L26.71875,15.234375 L26.71875,12.65625 L32.4375,12.65625 C33.7265625,12.65625 34.7617188,12.4335938 35.5429688,11.9882812 C36.3242188,11.5429688 36.8925781,10.9394531 37.2480469,10.1777344 C37.6035156,9.41601562 37.78125,8.5546875 37.78125,7.59375 C37.78125,6.6328125 37.6035156,5.7734375 37.2480469,5.015625 C36.8925781,4.2578125 36.3203125,3.66210938 35.53125,3.22851562 C34.7421875,2.79492188 33.6953125,2.578125 32.390625,2.578125 L27.28125,2.578125 L27.28125,24 L24.375,24 Z" id="Path"></path>
            <polygon id="Path" points="48.234375 0 48.234375 24 45.328125 24 45.328125 0"></polygon>
        </g>
    </g>
</svg>